<svg id="visual" viewBox="0 0 1920 600" width="1920" height="600" xmlns="http://www.w3.org/2000/svg"
     xmlns:xlink="http://www.w3.org/1999/xlink" version="1.1">
    <path d="M0 236L274 199L549 247L823 233L1097 230L1371 185L1646 212L1920 166L1920 0L1646 0L1371 0L1097 0L823 0L549 0L274 0L0 0Z"
          fill="#f5730a"></path>
    <path d="M0 193L274 140L549 133L823 177L1097 155L1371 173L1646 183L1920 162L1920 0L1646 0L1371 0L1097 0L823 0L549 0L274 0L0 0Z"
          fill="#da5b09"></path>
    <path d="M0 141L274 136L549 136L823 105L1097 91L1371 125L1646 142L1920 91L1920 0L1646 0L1371 0L1097 0L823 0L549 0L274 0L0 0Z"
          fill="#be4407"></path>
    <path d="M0 58L274 55L549 76L823 100L1097 56L1371 61L1646 64L1920 60L1920 0L1646 0L1371 0L1097 0L823 0L549 0L274 0L0 0Z"
          fill="#a32d04"></path>
    <path d="M0 71L274 53L549 26L823 46L1097 60L1371 55L1646 36L1920 54L1920 0L1646 0L1371 0L1097 0L823 0L549 0L274 0L0 0Z"
          fill="#871400"></path>
</svg>